<svg width="1040" height="383" viewBox="0 0 1040 383" fill="none" xmlns="http://www.w3.org/2000/svg">
<rect width="1040" height="382.5" fill="#D6E8B4"/>
<path d="M170 90L148 212H186.5L192.5 173.5L200 212H271L278 173.5L283.5 212H324L303 90H254L237 189.5H235.5L218.5 90H170Z" fill="#13372C"/>
<path d="M161.456 221.665V217L175.112 219.375C181.312 220.453 187.337 222.37 193.021 225.074C213.362 234.748 227.74 253.696 231.581 275.89L234.456 292.5L219.054 289.882C197.307 286.185 178.626 272.34 168.761 252.61C163.957 243.002 161.456 232.407 161.456 221.665Z" fill="#13372C"/>
<path d="M305.048 217.031L310.079 217L307.821 230.471C306.74 236.921 304.786 243.194 302.012 249.117C292.431 269.581 273.806 284.366 251.702 289.054L235.456 292.5L237.77 275.931C240.864 253.786 254.594 234.553 274.533 224.432C283.993 219.631 294.44 217.097 305.048 217.031Z" fill="#13372C"/>
<path d="M299.456 251.5C299.456 255.366 276.101 292.5 234.956 292.5C193.811 292.5 167.456 255.5 169.956 250.5C169.956 246.634 194.456 290.5 234.956 290.5C275.956 290.5 299.456 247.634 299.456 251.5Z" fill="#13372C"/>
<path d="M364.678 218V127.12H387.078L412.166 197.52L437.254 127.12H459.654V218H443.014V155.28L420.102 217.872H404.23L381.318 155.28V218H364.678ZM476.898 218V149.648H493.282V218H476.898ZM476.642 140.56V125.968H493.666V140.56H476.642ZM512.273 218V149.648H527.121L527.761 168.848L525.841 168.08C526.523 163.301 527.931 159.461 530.065 156.56C532.198 153.659 534.801 151.525 537.873 150.16C540.945 148.795 544.315 148.112 547.985 148.112C553.019 148.112 557.243 149.221 560.657 151.44C564.155 153.659 566.801 156.731 568.593 160.656C570.385 164.496 571.281 168.976 571.281 174.096V218H554.897V179.344C554.897 175.504 554.513 172.261 553.745 169.616C552.977 166.971 551.697 164.965 549.905 163.6C548.198 162.149 545.894 161.424 542.993 161.424C538.641 161.424 535.142 162.96 532.497 166.032C529.937 169.104 528.657 173.541 528.657 179.344V218H512.273ZM611.79 218C604.963 218 599.928 216.421 596.686 213.264C593.528 210.107 591.95 205.157 591.95 198.416V133.648H608.333V196.88C608.333 200.037 609.016 202.256 610.382 203.536C611.747 204.731 613.88 205.328 616.782 205.328H626.382V218H611.79ZM581.198 162.32V149.648H626.382V162.32H581.198ZM670.553 218V127.12H704.601C715.694 127.12 724.099 129.083 729.817 133.008C735.619 136.933 738.521 143.163 738.521 151.696C738.521 155.536 737.71 158.907 736.089 161.808C734.553 164.624 732.249 166.843 729.177 168.464C726.19 170.085 722.563 170.981 718.297 171.152L718.169 170.896C725.934 171.152 731.907 173.285 736.089 177.296C740.27 181.221 742.361 186.469 742.361 193.04C742.361 201.403 739.459 207.675 733.657 211.856C727.939 215.952 719.79 218 709.209 218H670.553ZM687.193 203.92H708.441C713.646 203.92 717.742 202.853 720.729 200.72C723.801 198.587 725.337 195.429 725.337 191.248C725.337 187.067 723.843 183.867 720.857 181.648C717.87 179.429 713.731 178.32 708.441 178.32H687.193V203.92ZM687.193 165.264H704.089C709.55 165.264 713.817 164.24 716.889 162.192C719.961 160.144 721.497 157.157 721.497 153.232C721.497 149.136 720.003 146.107 717.017 144.144C714.03 142.181 709.721 141.2 704.089 141.2H687.193V165.264ZM776.988 219.536C769.82 219.536 764.06 217.915 759.708 214.672C755.356 211.344 753.18 206.736 753.18 200.848C753.18 194.96 755.014 190.352 758.684 187.024C762.353 183.696 767.942 181.307 775.452 179.856L798.108 175.376C798.108 170.512 796.998 166.885 794.78 164.496C792.561 162.021 789.276 160.784 784.924 160.784C780.998 160.784 777.884 161.723 775.58 163.6C773.361 165.392 771.825 167.995 770.972 171.408L754.332 170.64C755.697 163.387 759.025 157.84 764.316 154C769.606 150.075 776.476 148.112 784.924 148.112C794.652 148.112 801.99 150.587 806.94 155.536C811.974 160.4 814.492 167.397 814.492 176.528V201.36C814.492 203.152 814.79 204.389 815.388 205.072C816.07 205.755 817.052 206.096 818.332 206.096H820.507V218C819.996 218.171 819.142 218.299 817.948 218.384C816.838 218.469 815.686 218.512 814.492 218.512C811.676 218.512 809.158 218.085 806.94 217.232C804.721 216.293 803.014 214.715 801.82 212.496C800.625 210.192 800.028 207.077 800.028 203.152L801.436 204.176C800.753 207.163 799.26 209.851 796.956 212.24C794.737 214.544 791.921 216.336 788.508 217.616C785.094 218.896 781.254 219.536 776.988 219.536ZM780.316 207.632C783.985 207.632 787.142 206.907 789.788 205.456C792.433 204.005 794.481 202 795.932 199.44C797.382 196.88 798.108 193.851 798.108 190.352V186.512L780.444 190.096C776.774 190.864 774.129 192.016 772.508 193.552C770.972 195.003 770.204 196.923 770.204 199.312C770.204 201.957 771.057 204.005 772.764 205.456C774.556 206.907 777.073 207.632 780.316 207.632ZM832.387 237.2V224.528H841.091C843.309 224.528 844.931 224.187 845.955 223.504C847.064 222.821 847.917 221.669 848.515 220.048L850.435 215.312H845.699L821.251 149.648H838.275L855.427 199.952L871.811 149.648H888.835L862.083 225.168C860.547 229.435 858.371 232.507 855.555 234.384C852.824 236.261 848.984 237.2 844.035 237.2H832.387Z" fill="#13372C"/>
</svg>
