<svg width="25" height="28" viewBox="0 0 25 28" fill="none" xmlns="http://www.w3.org/2000/svg">
<path d="M19.3172 2.68521L19.5282 1.62349C19.6951 0.783206 19.0522 0 18.1955 0H6.5684C4.85064 0 3.35941 1.18373 2.96964 2.85668L0.0962988 15.1895C-0.434639 17.4684 1.2953 19.6477 3.6352 19.6477L4.99257 13.5751C5.19685 12.6612 6.00794 12.0114 6.94441 12.0114H18.696C19.6089 12.0114 20.2887 12.8543 20.0953 13.7465C19.9526 14.4051 19.3699 14.875 18.696 14.875H7.68638C7.58604 14.875 7.49923 14.9449 7.47779 15.0429L5.72137 23.0734C5.16768 25.6049 7.09556 28 9.68693 28L11.2938 20.7925C11.4429 20.1235 12.0365 19.6477 12.7219 19.6477H19.1487C21.3875 19.6477 23.3413 18.1296 23.8945 15.9603C24.9912 11.6594 21.7417 7.47727 17.3032 7.47727H7.87771C7.16677 7.47727 6.63243 6.82862 6.76855 6.13084L6.87566 5.58176C7.0214 4.83465 7.67594 4.29545 8.43713 4.29545H17.3556C18.3099 4.29545 19.1312 3.62122 19.3172 2.68521Z" fill="black"/>
</svg>
