<svg width="161" height="176" viewBox="0 0 161 176" fill="none" xmlns="http://www.w3.org/2000/svg">
<path d="M122.62 25.3992L127.305 2.39921C127.558 1.15967 126.61 0 125.345 0H41.5755C30.8561 0 21.537 7.35519 19.0466 17.7813L0.647689 94.8072C-2.84811 109.442 8.24728 123.5 23.2939 123.5L33.938 77.0532C34.1463 76.1444 34.955 75.5 35.8875 75.5H129.301C130.58 75.5 131.531 76.6848 131.253 77.9339L128.142 91.9339C127.939 92.8489 127.127 93.5 126.19 93.5H49.3641C48.7385 93.5 48.1967 93.9338 48.0598 94.5442L36.9052 144.288C33.2585 160.55 45.6277 176 62.2939 176L73.9387 125.054C74.1465 124.145 74.9555 123.5 75.8884 123.5H133.895C142.082 123.5 149.239 117.974 151.31 110.053L159.605 78.3234C163.747 62.4807 151.793 47 135.418 47H44.2336C42.9715 47 42.0249 45.8453 42.2724 44.6078L45.4724 28.6078C45.6594 27.6729 46.4802 27 47.4336 27H120.66C121.611 27 122.43 26.3308 122.62 25.3992Z" fill="black"/>
</svg>
