<svg width="73" height="73" viewBox="0 0 73 73" fill="none" xmlns="http://www.w3.org/2000/svg">
<path d="M71.5 21.5V5.5C71.5 3.29086 69.7091 1.5 67.5 1.5H22.0859C18.9943 1.5 15.969 2.39565 13.3757 4.07865L10.9049 5.68214C9.05738 6.88113 7.47732 8.44864 6.26363 10.2865L4.14857 13.4893C2.42099 16.1054 1.5 19.1713 1.5 22.3063V36.8333C1.5 39.0425 3.29086 40.8333 5.5 40.8333H34.2396C35.1233 40.8333 35.8396 40.117 35.8396 39.2333V36.825C35.8396 36.4033 35.6731 35.9986 35.3763 35.699L25.5824 25.8118C25.3846 25.6121 25.2736 25.3423 25.2736 25.0611V11.1573C25.2736 9.13741 26.911 7.5 28.9308 7.5C29.126 7.5 29.3131 7.57802 29.4505 7.71669L47.066 25.5H67.5C69.7091 25.5 71.5 23.7091 71.5 21.5Z" fill="#4D5E21"/>
<path d="M67.5 33.5H51.066C48.8569 33.5 47.066 35.2909 47.066 37.5V65.1C47.066 65.6891 46.5885 66.1667 45.9994 66.1667H43.5486C43.2639 66.1667 42.9911 66.0529 42.7908 65.8507L26.4474 49.3517C25.6962 48.5933 24.673 48.1667 23.6056 48.1667H5.5C3.29086 48.1667 1.5 49.9575 1.5 52.1667V67.5C1.5 69.7091 3.29086 71.5 5.5 71.5H53.8229C56.3273 71.5 58.7968 70.9121 61.0326 69.7835L62.6635 68.9603C66.2243 67.163 68.9853 64.1005 70.4054 60.3732L70.4516 60.2517C71.1447 58.4325 71.5 56.5021 71.5 54.5553V37.5C71.5 35.2909 69.7091 33.5 67.5 33.5Z" fill="#4D5E21"/>
<path d="M71.5 21.5V5.5C71.5 3.29086 69.7091 1.5 67.5 1.5H22.0859C18.9943 1.5 15.969 2.39565 13.3757 4.07865L10.9049 5.68214C9.05738 6.88113 7.47732 8.44864 6.26363 10.2865L4.14857 13.4893C2.42099 16.1054 1.5 19.1713 1.5 22.3063V36.8333C1.5 39.0425 3.29086 40.8333 5.5 40.8333H34.2396C35.1233 40.8333 35.8396 40.117 35.8396 39.2333V36.825C35.8396 36.4033 35.6731 35.9986 35.3763 35.699L25.5824 25.8118C25.3846 25.6121 25.2736 25.3423 25.2736 25.0611V11.1573C25.2736 9.13741 26.911 7.5 28.9308 7.5C29.126 7.5 29.3131 7.57802 29.4505 7.71669L47.066 25.5H67.5C69.7091 25.5 71.5 23.7091 71.5 21.5Z" stroke="#BEFF18" stroke-width="3"/>
<path d="M67.5 33.5H51.066C48.8569 33.5 47.066 35.2909 47.066 37.5V65.1C47.066 65.6891 46.5885 66.1667 45.9994 66.1667H43.5486C43.2639 66.1667 42.9911 66.0529 42.7908 65.8507L26.4474 49.3517C25.6962 48.5933 24.673 48.1667 23.6056 48.1667H5.5C3.29086 48.1667 1.5 49.9575 1.5 52.1667V67.5C1.5 69.7091 3.29086 71.5 5.5 71.5H53.8229C56.3273 71.5 58.7968 70.9121 61.0326 69.7835L62.6635 68.9603C66.2243 67.163 68.9853 64.1005 70.4054 60.3732L70.4516 60.2517C71.1447 58.4325 71.5 56.5021 71.5 54.5553V37.5C71.5 35.2909 69.7091 33.5 67.5 33.5Z" stroke="#BEFF18" stroke-width="3"/>
</svg>
